<svg xmlns="http://www.w3.org/2000/svg" xmlns:xlink="http://www.w3.org/1999/xlink" width="2000" zoomAndPan="magnify" viewBox="0 0 1500 843.749997" height="1125" preserveAspectRatio="xMidYMid meet" version="1.0"><defs><g/><clipPath id="2c8be5d048"><path d="M 341.261719 338.957031 L 413.082031 338.957031 L 413.082031 410.777344 L 341.261719 410.777344 Z M 341.261719 338.957031 " clip-rule="nonzero"/></clipPath><clipPath id="b68e34554b"><path d="M 377.171875 338.957031 C 357.339844 338.957031 341.261719 355.035156 341.261719 374.867188 C 341.261719 394.699219 357.339844 410.777344 377.171875 410.777344 C 397.003906 410.777344 413.082031 394.699219 413.082031 374.867188 C 413.082031 355.035156 397.003906 338.957031 377.171875 338.957031 Z M 377.171875 338.957031 " clip-rule="nonzero"/></clipPath><clipPath id="708a5a267b"><path d="M 289 385 L 360 385 L 360 451 L 289 451 Z M 289 385 " clip-rule="nonzero"/></clipPath><clipPath id="8fbdbcafab"><path d="M 343.511719 385.902344 L 359.589844 405.160156 L 305.277344 450.507812 L 289.195312 431.246094 Z M 343.511719 385.902344 " clip-rule="nonzero"/></clipPath><clipPath id="8d46f64bcf"><path d="M 241.535156 413.492188 L 313.355469 413.492188 L 313.355469 485.3125 L 241.535156 485.3125 Z M 241.535156 413.492188 " clip-rule="nonzero"/></clipPath><clipPath id="02e7ad6ee2"><path d="M 277.445312 413.492188 C 257.613281 413.492188 241.535156 429.570312 241.535156 449.402344 C 241.535156 469.234375 257.613281 485.3125 277.445312 485.3125 C 297.277344 485.3125 313.355469 469.234375 313.355469 449.402344 C 313.355469 429.570312 297.277344 413.492188 277.445312 413.492188 Z M 277.445312 413.492188 " clip-rule="nonzero"/></clipPath><clipPath id="6830cf57e2"><path d="M 194 371 L 267 371 L 267 444 L 194 444 Z M 194 371 " clip-rule="nonzero"/></clipPath><clipPath id="f82154d106"><path d="M 194.226562 389.089844 L 211.96875 371.347656 L 266.070312 425.449219 L 248.328125 443.191406 Z M 194.226562 389.089844 " clip-rule="nonzero"/></clipPath><clipPath id="086c9953ef"><path d="M 146.421875 325.171875 L 218.242188 325.171875 L 218.242188 396.992188 L 146.421875 396.992188 Z M 146.421875 325.171875 " clip-rule="nonzero"/></clipPath><clipPath id="04627f0c31"><path d="M 182.332031 325.171875 C 162.496094 325.171875 146.421875 341.25 146.421875 361.082031 C 146.421875 380.917969 162.496094 396.992188 182.332031 396.992188 C 202.164062 396.992188 218.242188 380.917969 218.242188 361.082031 C 218.242188 341.25 202.164062 325.171875 182.332031 325.171875 Z M 182.332031 325.171875 " clip-rule="nonzero"/></clipPath><clipPath id="c678edc625"><path d="M 97 375 L 178 375 L 178 470 L 97 470 Z M 97 375 " clip-rule="nonzero"/></clipPath><clipPath id="3f34925230"><path d="M 157.613281 375.53125 L 177.492188 390.839844 L 117.25 469.058594 L 97.371094 453.75 Z M 157.613281 375.53125 " clip-rule="nonzero"/></clipPath><clipPath id="31c86be19e"><path d="M 51.449219 446.507812 L 123.269531 446.507812 L 123.269531 518.328125 L 51.449219 518.328125 Z M 51.449219 446.507812 " clip-rule="nonzero"/></clipPath><clipPath id="ca6b13c185"><path d="M 87.359375 446.507812 C 67.527344 446.507812 51.449219 462.582031 51.449219 482.417969 C 51.449219 502.25 67.527344 518.328125 87.359375 518.328125 C 107.191406 518.328125 123.269531 502.25 123.269531 482.417969 C 123.269531 462.582031 107.191406 446.507812 87.359375 446.507812 Z M 87.359375 446.507812 " clip-rule="nonzero"/></clipPath></defs><g clip-path="url(#2c8be5d048)"><g clip-path="url(#b68e34554b)"><path fill="#000000" d="M 341.261719 338.957031 L 413.082031 338.957031 L 413.082031 410.777344 L 341.261719 410.777344 Z M 341.261719 338.957031 " fill-opacity="1" fill-rule="nonzero"/></g></g><g clip-path="url(#708a5a267b)"><g clip-path="url(#8fbdbcafab)"><path fill="#000000" d="M 343.511719 385.902344 L 359.589844 405.160156 L 305.273438 450.511719 L 289.191406 431.25 Z M 343.511719 385.902344 " fill-opacity="1" fill-rule="nonzero"/></g></g><g clip-path="url(#8d46f64bcf)"><g clip-path="url(#02e7ad6ee2)"><path fill="#000000" d="M 241.535156 413.492188 L 313.355469 413.492188 L 313.355469 485.3125 L 241.535156 485.3125 Z M 241.535156 413.492188 " fill-opacity="1" fill-rule="nonzero"/></g></g><g clip-path="url(#6830cf57e2)"><g clip-path="url(#f82154d106)"><path fill="#000000" d="M 194.226562 389.089844 L 211.96875 371.347656 L 266.089844 425.472656 L 248.351562 443.210938 Z M 194.226562 389.089844 " fill-opacity="1" fill-rule="nonzero"/></g></g><g clip-path="url(#086c9953ef)"><g clip-path="url(#04627f0c31)"><path fill="#000000" d="M 146.421875 325.171875 L 218.242188 325.171875 L 218.242188 396.992188 L 146.421875 396.992188 Z M 146.421875 325.171875 " fill-opacity="1" fill-rule="nonzero"/></g></g><g clip-path="url(#c678edc625)"><g clip-path="url(#3f34925230)"><path fill="#000000" d="M 157.613281 375.53125 L 177.492188 390.839844 L 117.273438 469.03125 L 97.394531 453.722656 Z M 157.613281 375.53125 " fill-opacity="1" fill-rule="nonzero"/></g></g><g clip-path="url(#31c86be19e)"><g clip-path="url(#ca6b13c185)"><path fill="#000000" d="M 51.449219 446.507812 L 123.269531 446.507812 L 123.269531 518.328125 L 51.449219 518.328125 Z M 51.449219 446.507812 " fill-opacity="1" fill-rule="nonzero"/></g></g><g fill="#000000" fill-opacity="1"><g transform="translate(439.375398, 476.79183)"><g><path d="M 117.890625 0 L 102.4375 0 L 102.296875 -74.109375 L 70.984375 -10.34375 L 60.078125 -10.34375 L 28.765625 -74.109375 L 28.765625 0 L 13.03125 0 L 13.03125 -99.1875 L 32.875 -99.1875 L 65.59375 -33.296875 L 98.1875 -99.1875 L 117.890625 -99.1875 Z M 117.890625 0 "/></g></g></g><g fill="#000000" fill-opacity="1"><g transform="translate(570.429838, 476.79183)"><g><path d="M 75.9375 -75.375 L 41.65625 10.34375 C 37.03125 22.25 28.859375 28.203125 17.140625 28.203125 C 10.628906 28.203125 4.820312 26.070312 -0.28125 21.8125 L 6.65625 9.203125 C 10.0625 11.660156 13.320312 12.890625 16.4375 12.890625 C 21.539062 12.890625 25.363281 10.101562 27.90625 4.53125 L 30.46875 -1.140625 L -0.703125 -75.375 L 16.15625 -75.375 L 38.6875 -18.28125 L 59.65625 -75.375 Z M 75.9375 -75.375 "/></g></g></g><g fill="#000000" fill-opacity="1"><g transform="translate(645.662176, 476.79183)"><g><path d="M 117.890625 0 L 102.4375 0 L 102.296875 -74.109375 L 70.984375 -10.34375 L 60.078125 -10.34375 L 28.765625 -74.109375 L 28.765625 0 L 13.03125 0 L 13.03125 -99.1875 L 32.875 -99.1875 L 65.59375 -33.296875 L 98.1875 -99.1875 L 117.890625 -99.1875 Z M 117.890625 0 "/></g></g></g><g fill="#000000" fill-opacity="1"><g transform="translate(776.716616, 476.79183)"><g><path d="M 43.078125 -75.9375 C 56.015625 -75.9375 65.382812 -72.039062 71.1875 -64.25 C 77 -56.457031 79.390625 -45.523438 78.359375 -31.453125 L 21.390625 -31.453125 C 22.710938 -25.597656 25.453125 -20.992188 29.609375 -17.640625 C 33.765625 -14.285156 38.816406 -12.609375 44.765625 -12.609375 C 53.273438 -12.609375 60.363281 -15.535156 66.03125 -21.390625 L 74.671875 -12.1875 C 66.921875 -3.6875 56.53125 0.5625 43.5 0.5625 C 31.882812 0.5625 22.554688 -2.953125 15.515625 -9.984375 C 8.472656 -17.023438 4.953125 -26.210938 4.953125 -37.546875 C 4.953125 -48.878906 8.492188 -58.085938 15.578125 -65.171875 C 22.671875 -72.253906 31.835938 -75.84375 43.078125 -75.9375 Z M 21.109375 -43.359375 L 64.1875 -43.359375 C 63.90625 -49.398438 61.875 -54.164062 58.09375 -57.65625 C 54.3125 -61.15625 49.351562 -62.90625 43.21875 -62.90625 C 37.257812 -62.90625 32.320312 -61.15625 28.40625 -57.65625 C 24.488281 -54.164062 22.054688 -49.398438 21.109375 -43.359375 Z M 21.109375 -43.359375 "/></g></g></g><g fill="#000000" fill-opacity="1"><g transform="translate(860.024721, 476.79183)"><g><path d="M 50.578125 -17.28125 L 54.6875 -4.8125 C 48.457031 -1.132812 42.269531 0.703125 36.125 0.703125 C 29.988281 0.703125 24.9375 -1.132812 20.96875 -4.8125 C 17 -8.5 15.015625 -13.976562 15.015625 -21.25 L 15.015625 -60.359375 L 4.390625 -60.359375 L 4.390625 -72.546875 L 15.015625 -72.546875 L 15.015625 -93.234375 L 31.171875 -93.234375 L 31.171875 -72.546875 L 53.421875 -72.546875 L 53.421875 -60.359375 L 31.171875 -60.359375 L 31.171875 -24.234375 C 31.171875 -20.453125 31.832031 -17.804688 33.15625 -16.296875 C 34.476562 -14.785156 36.507812 -14.03125 39.25 -14.03125 C 42.269531 -14.03125 46.046875 -15.113281 50.578125 -17.28125 Z M 50.578125 -17.28125 "/></g></g></g><g fill="#000000" fill-opacity="1"><g transform="translate(917.688703, 476.79183)"><g><path d="M 28.34375 -75.375 L 28.34375 -60.359375 C 33.53125 -70.742188 42.21875 -75.9375 54.40625 -75.9375 L 54.40625 -60.359375 C 46.945312 -60.734375 40.898438 -58.984375 36.265625 -55.109375 C 31.640625 -51.242188 29 -46.003906 28.34375 -39.390625 L 28.34375 0 L 12.046875 0 L 12.046875 -75.375 Z M 28.34375 -75.375 "/></g></g></g><g fill="#000000" fill-opacity="1"><g transform="translate(973.510825, 476.79183)"><g><path d="M 13.3125 -104.0625 C 15.113281 -105.90625 17.382812 -106.828125 20.125 -106.828125 C 22.863281 -106.828125 25.128906 -105.90625 26.921875 -104.0625 C 28.710938 -102.226562 29.609375 -99.847656 29.609375 -96.921875 C 29.609375 -94.078125 28.710938 -91.734375 26.921875 -89.890625 C 25.128906 -88.054688 22.863281 -87.140625 20.125 -87.140625 C 17.382812 -87.140625 15.113281 -88.054688 13.3125 -89.890625 C 11.519531 -91.734375 10.625 -94.078125 10.625 -96.921875 C 10.625 -99.847656 11.519531 -102.226562 13.3125 -104.0625 Z M 28.203125 0 L 12.046875 0 L 12.046875 -75.375 L 28.203125 -75.375 Z M 28.203125 0 "/></g></g></g><g fill="#000000" fill-opacity="1"><g transform="translate(1013.748076, 476.79183)"><g><path d="M 42.9375 -75.9375 C 56.53125 -75.9375 66.921875 -71.832031 74.109375 -63.625 L 65.171875 -53.125 C 59.503906 -58.894531 52.328125 -61.734375 43.640625 -61.640625 C 37.117188 -61.640625 31.753906 -59.394531 27.546875 -54.90625 C 23.347656 -50.414062 21.25 -44.628906 21.25 -37.546875 C 21.25 -30.460938 23.347656 -24.675781 27.546875 -20.1875 C 31.753906 -15.695312 37.117188 -13.453125 43.640625 -13.453125 C 53.273438 -13.453125 60.691406 -16.476562 65.890625 -22.53125 L 74.953125 -13.453125 C 67.867188 -4.109375 57.195312 0.5625 42.9375 0.5625 C 31.695312 0.5625 22.554688 -2.953125 15.515625 -9.984375 C 8.472656 -17.023438 4.953125 -26.210938 4.953125 -37.546875 C 4.953125 -48.972656 8.472656 -58.226562 15.515625 -65.3125 C 22.554688 -72.394531 31.695312 -75.9375 42.9375 -75.9375 Z M 42.9375 -75.9375 "/></g></g></g><g fill="#000000" fill-opacity="1"><g transform="translate(1093.670509, 476.79183)"><g><path d="M 101.453125 0 L 76.234375 0 L 76.234375 -38.53125 L 35.140625 -38.53125 L 35.140625 0 L 9.921875 0 L 9.921875 -99.1875 L 35.140625 -99.1875 L 35.140625 -58.375 L 76.234375 -58.375 L 76.234375 -99.1875 L 101.453125 -99.1875 Z M 101.453125 0 "/></g></g></g><g fill="#000000" fill-opacity="1"><g transform="translate(1205.031361, 476.79183)"><g><path d="M 99.1875 -99.1875 L 99.1875 -41.65625 C 99.1875 -28.53125 95.125 -18.113281 87 -10.40625 C 78.875 -2.707031 67.867188 1.140625 53.984375 1.140625 C 40.003906 1.140625 28.878906 -2.707031 20.609375 -10.40625 C 12.347656 -18.113281 8.21875 -28.53125 8.21875 -41.65625 L 8.21875 -99.1875 L 33.4375 -99.1875 L 33.4375 -41.65625 C 33.4375 -35.039062 35.347656 -29.773438 39.171875 -25.859375 C 43.003906 -21.941406 47.988281 -19.984375 54.125 -19.984375 C 60.164062 -19.984375 65.003906 -21.914062 68.640625 -25.78125 C 72.285156 -29.65625 74.109375 -34.945312 74.109375 -41.65625 L 74.109375 -99.1875 Z M 99.1875 -99.1875 "/></g></g></g><g fill="#000000" fill-opacity="1"><g transform="translate(1312.425162, 476.79183)"><g><path d="M 9.921875 -99.1875 L 56.8125 -99.1875 C 67.957031 -99.1875 76.8125 -96.941406 83.375 -92.453125 C 89.945312 -87.960938 93.234375 -81.941406 93.234375 -74.390625 C 93.234375 -69.191406 91.71875 -64.628906 88.6875 -60.703125 C 85.664062 -56.785156 81.515625 -54.070312 76.234375 -52.5625 C 82.460938 -51.332031 87.414062 -48.453125 91.09375 -43.921875 C 94.78125 -39.390625 96.625 -33.910156 96.625 -27.484375 C 96.625 -19.078125 93.203125 -12.394531 86.359375 -7.4375 C 79.515625 -2.476562 70.234375 0 58.515625 0 L 9.921875 0 Z M 35 -79.90625 L 35 -59.515625 L 55.40625 -59.515625 C 59.082031 -59.515625 62.003906 -60.429688 64.171875 -62.265625 C 66.347656 -64.109375 67.4375 -66.640625 67.4375 -69.859375 C 67.4375 -72.972656 66.347656 -75.425781 64.171875 -77.21875 C 62.003906 -79.007812 59.082031 -79.90625 55.40625 -79.90625 Z M 35 -41.375 L 35 -19.40625 L 55.40625 -19.40625 C 60.125 -19.40625 63.828125 -20.394531 66.515625 -22.375 C 69.210938 -24.363281 70.5625 -27.109375 70.5625 -30.609375 C 70.5625 -33.910156 69.210938 -36.53125 66.515625 -38.46875 C 63.828125 -40.40625 60.125 -41.375 55.40625 -41.375 Z M 35 -41.375 "/></g></g></g></svg>